<svg width="24" height="24" viewBox="0 0 24 24" fill="none" xmlns="http://www.w3.org/2000/svg">
<g clip-path="url(#clip0_924_278948)">
<path d="M19.5 5V4.5H19H5H4.5V5V19V19.5H5H19H19.5V19V5ZM7.02185 16.5L9.01194 13.9394L10.7546 16.0485L11.1276 16.5H7.02185ZM14.1337 12.6842L16.9992 16.5H11.1757L11.5352 16.0363L14.1337 12.6842ZM5 3.5H19C19.8239 3.5 20.5 4.17614 20.5 5V19C20.5 19.8239 19.8239 20.5 19 20.5H5C4.17614 20.5 3.5 19.8239 3.5 19V5C3.5 4.17614 4.17614 3.5 5 3.5Z" fill="#A2A6AC" stroke="#A2A6AC"/>
</g>
<defs>
<clipPath id="clip0_924_278948">
<rect width="24" height="24" fill="white"/>
</clipPath>
</defs>
</svg>
