<svg width="20" height="20" viewBox="0 0 20 20" fill="none" xmlns="http://www.w3.org/2000/svg">
<g clip-path="url(#clip0_64_12210)">
<path d="M16.666 4.99984H13.3327V3.33317C13.3327 2.4165 12.5827 1.6665 11.666 1.6665H8.33268C7.41602 1.6665 6.66602 2.4165 6.66602 3.33317V4.99984H3.33268C2.41602 4.99984 1.66602 5.74984 1.66602 6.6665V16.6665C1.66602 17.5832 2.41602 18.3332 3.33268 18.3332H16.666C17.5827 18.3332 18.3327 17.5832 18.3327 16.6665V6.6665C18.3327 5.74984 17.5827 4.99984 16.666 4.99984ZM8.33268 3.33317H11.666V4.99984H8.33268V3.33317ZM16.666 16.6665H3.33268V6.6665H16.666V16.6665Z" fill="#FFFFFF"/>
<path d="M10.8327 8.33301H9.16602V10.833H6.66602V12.4997H9.16602V14.9997H10.8327V12.4997H13.3327V10.833H10.8327V8.33301Z" fill="#FFFFFF"/>
</g>
<defs>
<clipPath id="clip0_64_12210">
<rect width="20" height="20" fill="white"/>
</clipPath>
</defs>
</svg>
