<svg width="20" height="20" viewBox="0 0 20 20" fill="none" xmlns="http://www.w3.org/2000/svg">
<g clip-path="url(#clip0_64_12196)">
<path d="M15.0007 4.99984H13.334C13.334 3.15817 11.8423 1.6665 10.0007 1.6665C8.15898 1.6665 6.66732 3.15817 6.66732 4.99984H5.00065C4.08398 4.99984 3.33398 5.74984 3.33398 6.6665V16.6665C3.33398 17.5832 4.08398 18.3332 5.00065 18.3332H15.0007C15.9173 18.3332 16.6673 17.5832 16.6673 16.6665V6.6665C16.6673 5.74984 15.9173 4.99984 15.0007 4.99984ZM10.0007 3.33317C10.9173 3.33317 11.6673 4.08317 11.6673 4.99984H8.33398C8.33398 4.08317 9.08398 3.33317 10.0007 3.33317ZM15.0007 16.6665H5.00065V6.6665H6.66732V8.33317C6.66732 8.7915 7.04232 9.1665 7.50065 9.1665C7.95898 9.1665 8.33398 8.7915 8.33398 8.33317V6.6665H11.6673V8.33317C11.6673 8.7915 12.0423 9.1665 12.5007 9.1665C12.959 9.1665 13.334 8.7915 13.334 8.33317V6.6665H15.0007V16.6665Z" fill="#FFFFFF"/>
</g>
<defs>
<clipPath id="clip0_64_12196">
<rect width="20" height="20" fill="white"/>
</clipPath>
</defs>
</svg>
