<svg width="20" height="20" viewBox="0 0 20 20" fill="none" xmlns="http://www.w3.org/2000/svg">
<g clip-path="url(#clip0_64_12202)">
<path d="M18.2507 7.40833L17.3757 3.76667C17.1924 3.01667 16.5424 2.5 15.7841 2.5H4.20907C3.45907 2.5 2.80074 3.025 2.62574 3.76667L1.75074 7.40833C1.55074 8.25833 1.73407 9.125 2.2674 9.80833C2.33407 9.9 2.42574 9.96667 2.50074 10.05V15.8333C2.50074 16.75 3.25074 17.5 4.1674 17.5H15.8341C16.7507 17.5 17.5007 16.75 17.5007 15.8333V10.05C17.5757 9.975 17.6674 9.9 17.7341 9.81667C18.2674 9.13333 18.4591 8.25833 18.2507 7.40833ZM15.7591 4.15833L16.6341 7.8C16.7174 8.15 16.6424 8.5 16.4257 8.775C16.3091 8.925 16.0591 9.16667 15.6424 9.16667C15.1341 9.16667 14.6924 8.75833 14.6341 8.21667L14.1507 4.16667L15.7591 4.15833ZM10.8341 4.16667H12.4674L12.9174 7.93333C12.9591 8.25833 12.8591 8.58333 12.6424 8.825C12.4591 9.04167 12.1924 9.16667 11.8507 9.16667C11.2924 9.16667 10.8341 8.675 10.8341 8.075V4.16667ZM7.07574 7.93333L7.53407 4.16667H9.16741V8.075C9.16741 8.675 8.70907 9.16667 8.0924 9.16667C7.80907 9.16667 7.55074 9.04167 7.35074 8.825C7.1424 8.58333 7.0424 8.25833 7.07574 7.93333ZM3.3674 7.8L4.20907 4.16667H5.85074L5.3674 8.21667C5.30074 8.75833 4.8674 9.16667 4.35907 9.16667C3.95074 9.16667 3.6924 8.925 3.58407 8.775C3.35907 8.50833 3.28407 8.15 3.3674 7.8ZM4.1674 15.8333V10.8083C4.23407 10.8167 4.2924 10.8333 4.35907 10.8333C5.08407 10.8333 5.7424 10.5333 6.22574 10.0417C6.72574 10.5417 7.3924 10.8333 8.15074 10.8333C8.87574 10.8333 9.52574 10.5333 10.0091 10.0583C10.5007 10.5333 11.1674 10.8333 11.9174 10.8333C12.6174 10.8333 13.2841 10.5417 13.7841 10.0417C14.2674 10.5333 14.9257 10.8333 15.6507 10.8333C15.7174 10.8333 15.7757 10.8167 15.8424 10.8083V15.8333H4.1674Z" fill="#FFFFFF"/>
</g>
<defs>
<clipPath id="clip0_64_12202">
<rect width="20" height="20" fill="white"/>
</clipPath>
</defs>
</svg>
