<svg width="20" height="20" viewBox="0 0 20 20" fill="none" xmlns="http://www.w3.org/2000/svg">
<g clip-path="url(#clip0_123_2765)">
<path d="M9.9915 1.6665C5.3915 1.6665 1.6665 5.39984 1.6665 9.99984C1.6665 14.5998 5.3915 18.3332 9.9915 18.3332C14.5998 18.3332 18.3332 14.5998 18.3332 9.99984C18.3332 5.39984 14.5998 1.6665 9.9915 1.6665ZM9.99984 16.6665C6.3165 16.6665 3.33317 13.6832 3.33317 9.99984C3.33317 6.3165 6.3165 3.33317 9.99984 3.33317C13.6832 3.33317 16.6665 6.3165 16.6665 9.99984C16.6665 13.6832 13.6832 16.6665 9.99984 16.6665ZM10.4165 5.83317H9.1665V10.8332L13.5415 13.4582L14.1665 12.4332L10.4165 10.2082V5.83317Z" fill="#106636"/>
</g>
<defs>
<clipPath id="clip0_123_2765">
<rect width="20" height="20" fill="white"/>
</clipPath>
</defs>
</svg>
