<svg width="20" height="20" viewBox="0 0 20 20" fill="none" xmlns="http://www.w3.org/2000/svg">
<g clip-path="url(#clip0_64_12224)">
<path d="M9.64232 10.9664C8.50898 11.1998 7.83398 11.9331 7.83398 12.9748C7.83398 14.0914 8.75898 14.9914 9.90898 14.9914C11.6173 14.9914 13.0007 13.6081 13.0007 11.8998C13.0007 11.0081 12.8757 10.1331 12.6173 9.29977C11.959 10.1914 10.784 10.7331 9.64232 10.9664ZM11.2507 0.558105C11.2507 0.558105 11.8673 2.76644 11.8673 4.55811C11.8673 6.27477 10.7423 7.66644 9.02565 7.66644C7.30065 7.66644 6.00065 6.27477 6.00065 4.55811L6.02565 4.25811C4.34232 6.25811 3.33398 8.84977 3.33398 11.6664C3.33398 15.3498 6.31732 18.3331 10.0007 18.3331C13.684 18.3331 16.6673 15.3498 16.6673 11.6664C16.6673 7.17477 14.509 3.16644 11.2507 0.558105ZM10.0007 16.6664C7.24232 16.6664 5.00065 14.4248 5.00065 11.6664C5.00065 10.3914 5.25065 9.13311 5.71732 7.97477C6.55898 8.81644 7.72565 9.33311 9.02565 9.33311C11.2423 9.33311 12.984 7.8081 13.4257 5.64144C14.4507 7.47477 15.0007 9.5331 15.0007 11.6664C15.0007 14.4248 12.759 16.6664 10.0007 16.6664Z" fill="#FFFFFF"/>
</g>
<defs>
<clipPath id="clip0_64_12224">
<rect width="20" height="20" fill="white"/>
</clipPath>
</defs>
</svg>
