<svg width="20" height="20" viewBox="0 0 20 20" fill="none" xmlns="http://www.w3.org/2000/svg">
<g clip-path="url(#clip0_92_13657)">
<path d="M12.3663 4.55811C12.3663 3.68589 12.2286 2.73432 12.0843 1.97335C14.5818 4.46068 16.1663 7.88879 16.1663 11.6664C16.1663 15.0736 13.4069 17.8331 9.99967 17.8331C6.59248 17.8331 3.83301 15.0736 3.83301 11.6664C3.83301 9.42821 4.49805 7.33977 5.64513 5.60075C6.06845 7.07599 7.375 8.16644 9.02467 8.16644C11.0749 8.16644 12.3663 6.48978 12.3663 4.55811ZM6.06989 7.62122L5.53516 7.08648L5.25256 7.78793C4.76232 9.00478 4.49967 10.3265 4.49967 11.6664C4.49967 14.7009 6.9652 17.1664 9.99967 17.1664C13.0342 17.1664 15.4997 14.7009 15.4997 11.6664C15.4997 9.44619 14.9271 7.30403 13.8611 5.39744L13.2038 4.22176L12.9348 5.54157C12.5372 7.49184 10.9873 8.83311 9.02467 8.83311C7.86021 8.83311 6.81988 8.37121 6.06989 7.62122ZM8.33301 12.9748C8.33301 12.5681 8.46204 12.2468 8.68275 12.0031C8.9075 11.755 9.25632 11.5562 9.74217 11.4562C10.6414 11.2723 11.6032 10.9 12.3496 10.2918C12.4501 10.8153 12.4997 11.3533 12.4997 11.8998C12.4997 13.332 11.3402 14.4914 9.90801 14.4914C9.02078 14.4914 8.33301 13.8021 8.33301 12.9748Z" stroke="#0F5D31"/>
</g>
<defs>
<clipPath id="clip0_92_13657">
<rect width="20" height="20" fill="white"/>
</clipPath>
</defs>
</svg>
