<svg width="14" height="17" viewBox="0 0 14 17" fill="none" xmlns="http://www.w3.org/2000/svg">
<path d="M9.60986 2.96387C9.05371 3.63623 8.12402 4.13428 7.38525 4.13428C7.29395 4.13428 7.21094 4.11768 7.16113 4.10938C7.15283 4.06787 7.12793 3.94336 7.12793 3.81055C7.12793 2.96387 7.55957 2.11719 8.03271 1.58594C8.62207 0.888672 9.61816 0.374023 10.4482 0.34082C10.4648 0.432129 10.4731 0.54834 10.4731 0.664551C10.4731 1.51123 10.1162 2.34961 9.60986 2.96387ZM10.1909 4.30859C10.6558 4.30859 12.3408 4.3584 13.4448 5.94385C13.3452 6.01855 11.6768 6.96484 11.6768 9.07324C11.6768 11.5054 13.8018 12.377 13.8682 12.3936C13.8599 12.4517 13.5278 13.5723 12.7476 14.7261C12.042 15.7305 11.3032 16.7515 10.1909 16.7515C9.07031 16.7515 8.77979 16.0957 7.50146 16.0957C6.23975 16.0957 5.7915 16.7681 4.77881 16.7681C3.74951 16.7681 3.03564 15.8301 2.22217 14.6846C1.26758 13.3315 0.503906 11.2314 0.503906 9.23926C0.503906 6.05176 2.5791 4.3584 4.62939 4.3584C5.7085 4.3584 6.60498 5.06396 7.29395 5.06396C7.94141 5.06396 8.9541 4.30859 10.1909 4.30859Z" fill="black"/>
</svg>
