<svg width="15" height="16" viewBox="0 0 15 16" fill="none" xmlns="http://www.w3.org/2000/svg">
<mask id="mask0_10_17989" style="mask-type:luminance" maskUnits="userSpaceOnUse" x="0" y="0" width="15" height="16">
<path d="M14.5222 6.56218H7.66812V9.40413H11.6134C11.2456 11.2096 9.70764 12.2461 7.66812 12.2461C5.26083 12.2461 3.32162 10.3069 3.32162 7.89957C3.32162 5.49227 5.26083 3.55306 7.66812 3.55306C8.7046 3.55306 9.64076 3.92085 10.3763 4.52268L12.5161 2.38285C11.2122 1.24607 9.54047 0.543945 7.66812 0.543945C3.5891 0.543945 0.3125 3.82054 0.3125 7.89957C0.3125 11.9786 3.5891 15.2552 7.66812 15.2552C11.3459 15.2552 14.6894 12.5804 14.6894 7.89957C14.6894 7.46492 14.6225 6.99683 14.5222 6.56218Z" fill="white"/>
</mask>
<g mask="url(#mask0_10_17989)">
<path d="M-0.355469 12.246V3.55298L5.32842 7.89948L-0.355469 12.246Z" fill="#FBBC05"/>
</g>
<mask id="mask1_10_17989" style="mask-type:luminance" maskUnits="userSpaceOnUse" x="0" y="0" width="15" height="16">
<path d="M14.5222 6.56218H7.66812V9.40413H11.6134C11.2456 11.2096 9.70764 12.2461 7.66812 12.2461C5.26083 12.2461 3.32162 10.3069 3.32162 7.89957C3.32162 5.49227 5.26083 3.55306 7.66812 3.55306C8.7046 3.55306 9.64076 3.92085 10.3763 4.52268L12.5161 2.38285C11.2122 1.24607 9.54047 0.543945 7.66812 0.543945C3.5891 0.543945 0.3125 3.82054 0.3125 7.89957C0.3125 11.9786 3.5891 15.2552 7.66812 15.2552C11.3459 15.2552 14.6894 12.5804 14.6894 7.89957C14.6894 7.46492 14.6225 6.99683 14.5222 6.56218Z" fill="white"/>
</mask>
<g mask="url(#mask1_10_17989)">
<path d="M-0.355469 3.55306L5.32842 7.89956L7.66885 5.86005L15.6932 4.5561V-0.124756H-0.355469V3.55306Z" fill="#EA4335"/>
</g>
<mask id="mask2_10_17989" style="mask-type:luminance" maskUnits="userSpaceOnUse" x="0" y="0" width="15" height="16">
<path d="M14.5222 6.56218H7.66812V9.40413H11.6134C11.2456 11.2096 9.70764 12.2461 7.66812 12.2461C5.26083 12.2461 3.32162 10.3069 3.32162 7.89957C3.32162 5.49227 5.26083 3.55306 7.66812 3.55306C8.7046 3.55306 9.64076 3.92085 10.3763 4.52268L12.5161 2.38285C11.2122 1.24607 9.54047 0.543945 7.66812 0.543945C3.5891 0.543945 0.3125 3.82054 0.3125 7.89957C0.3125 11.9786 3.5891 15.2552 7.66812 15.2552C11.3459 15.2552 14.6894 12.5804 14.6894 7.89957C14.6894 7.46492 14.6225 6.99683 14.5222 6.56218Z" fill="white"/>
</mask>
<g mask="url(#mask2_10_17989)">
<path d="M-0.355469 12.2461L9.67493 4.5561L12.3163 4.89044L15.6932 -0.124756V15.9239H-0.355469V12.2461Z" fill="#34A853"/>
</g>
<mask id="mask3_10_17989" style="mask-type:luminance" maskUnits="userSpaceOnUse" x="0" y="0" width="15" height="16">
<path d="M14.5222 6.56218H7.66812V9.40413H11.6134C11.2456 11.2096 9.70764 12.2461 7.66812 12.2461C5.26083 12.2461 3.32162 10.3069 3.32162 7.89957C3.32162 5.49227 5.26083 3.55306 7.66812 3.55306C8.7046 3.55306 9.64076 3.92085 10.3763 4.52268L12.5161 2.38285C11.2122 1.24607 9.54047 0.543945 7.66812 0.543945C3.5891 0.543945 0.3125 3.82054 0.3125 7.89957C0.3125 11.9786 3.5891 15.2552 7.66812 15.2552C11.3459 15.2552 14.6894 12.5804 14.6894 7.89957C14.6894 7.46492 14.6225 6.99683 14.5222 6.56218Z" fill="white"/>
</mask>
<g mask="url(#mask3_10_17989)">
<path d="M15.6943 15.9238L5.32957 7.89948L3.99219 6.89644L15.6943 3.55298V15.9238Z" fill="#4285F4"/>
</g>
</svg>
