<svg width="28" height="28" viewBox="0 0 28 28" fill="none" xmlns="http://www.w3.org/2000/svg">
<path d="M27.0195 15.6948C25.9986 15.6512 24.978 15.5977 23.9567 15.5673C23.2361 15.5457 22.5129 15.5835 21.7937 15.5445C20.7396 15.4874 19.6792 15.4924 18.6331 15.3494C17.848 15.2421 17.1521 14.8843 16.5741 14.3463C15.4693 13.318 14.3068 12.3535 13.2045 11.3221C12.6371 10.7912 12.0386 10.2907 11.4561 9.77416C10.9421 9.31829 10.983 9.05195 11.6159 8.79945C12.869 8.29947 14.0614 8.49314 15.224 9.0948C16.0373 9.51564 16.7229 10.0923 17.3591 10.7382C17.6856 11.0695 17.9851 11.4193 18.2698 11.7858C18.6189 12.2351 19.0747 12.4134 19.6633 12.3336C20.7706 12.1835 21.8839 12.0763 22.9943 11.9486C23.3213 11.911 23.6475 11.8661 23.9737 11.8209C24.1102 11.8019 24.2282 11.7477 24.2607 11.5981C24.294 11.4439 24.2484 11.325 24.1068 11.2329C23.2978 10.707 22.4912 10.1773 21.6855 9.64651C19.8973 8.46843 18.1042 7.29736 16.3253 6.1059C15.569 5.59936 14.798 5.11547 14.0454 4.60417C13.8493 4.47087 13.6946 4.47473 13.5076 4.61118C12.6183 5.26027 11.7326 5.91475 10.829 6.54407C8.87576 7.90441 6.9585 9.31847 4.88456 10.5016C4.38457 10.7867 3.88622 11.0826 3.29863 11.1563C2.40761 11.2682 1.53149 11.2 0.677634 10.9116C0.5286 10.8612 0.373296 10.821 0.234622 10.7498C-0.0325484 10.6125 -0.0750756 10.3633 0.125211 10.1421C0.318501 9.92848 0.557952 9.76499 0.786864 9.5928C2.24594 8.49511 3.70965 7.40336 5.17027 6.30774C6.76566 5.11116 8.35714 3.90954 9.95453 2.71565C10.9729 1.95446 11.9885 1.18895 13.0252 0.452644C13.7094 -0.0334091 14.4863 -0.0967369 15.2895 0.114087C15.6388 0.20571 15.9409 0.390663 16.2404 0.587564C17.1261 1.16991 18.02 1.74049 18.9114 2.31431C20.6717 3.44756 22.4336 4.57812 24.1924 5.71353C24.7731 6.08838 25.3472 6.47329 25.9223 6.8564C26.1327 6.99653 26.2827 7.17133 26.3391 7.43435C26.7972 9.57169 27.2665 11.7067 27.7287 13.8432C27.8234 14.2811 27.9053 14.7217 27.9882 15.162C28.0476 15.4774 27.8804 15.6749 27.5558 15.6797C27.3772 15.6824 27.1985 15.6802 27.02 15.6802C27.0199 15.6851 27.0197 15.69 27.0195 15.6948Z" fill="#FFFFFF"/>
<path d="M0.980478 12.305C2.00136 12.3487 3.02197 12.4021 4.0433 12.4326C4.76393 12.4541 5.48711 12.4163 6.20629 12.4553C7.26043 12.5124 8.32075 12.5074 9.3669 12.6504C10.152 12.7577 10.8479 13.1155 11.4259 13.6536C12.5307 14.6818 13.6932 15.6463 14.7955 16.6778C15.3629 17.2087 15.9614 17.7092 16.5439 18.2257C17.0579 18.6816 17.017 18.9479 16.3841 19.2004C15.131 19.7004 13.9386 19.5067 12.776 18.905C11.9627 18.4842 11.2771 17.9075 10.6409 17.2617C10.3144 16.9303 10.0149 16.5805 9.73021 16.2141C9.38107 15.7647 8.92534 15.5865 8.33675 15.6662C7.22935 15.8163 6.11614 15.9235 5.00575 16.0512C4.67869 16.0889 4.35246 16.1337 4.02631 16.179C3.88982 16.1979 3.77177 16.2521 3.73933 16.4018C3.70589 16.556 3.7516 16.6748 3.89318 16.7669C4.70223 17.2928 5.50883 17.8225 6.31452 18.3533C8.10274 19.5314 9.89578 20.7025 11.6747 21.8939C12.431 22.4005 13.202 22.8844 13.9546 23.3957C14.1507 23.529 14.3054 23.5251 14.4924 23.3887C15.3817 22.7396 16.2674 22.0851 17.171 21.4558C19.1242 20.0954 21.0415 18.6814 23.1154 17.4983C23.6154 17.2132 24.1138 16.9173 24.7014 16.8435C25.5924 16.7317 26.4685 16.7999 27.3224 17.0882C27.4714 17.1386 27.6267 17.1788 27.7654 17.2501C28.0325 17.3873 28.0751 17.6365 27.8748 17.8578C27.6815 18.0714 27.442 18.2348 27.2131 18.4071C25.7541 19.5047 24.2903 20.5965 22.8297 21.6921C21.2343 22.8887 19.6429 24.0903 18.0455 25.2842C17.0271 26.0454 16.0115 26.8109 14.9748 27.5472C14.2906 28.0333 13.5137 28.0966 12.7105 27.8858C12.3612 27.7941 12.0591 27.6092 11.7596 27.4123C10.8739 26.8299 9.98002 26.2594 9.08864 25.6855C7.32831 24.5523 5.56635 23.4217 3.80757 22.2863C3.22689 21.9115 2.65284 21.5266 2.07769 21.1434C1.86732 21.0033 1.71729 20.8285 1.66085 20.5655C1.20276 18.4282 0.733482 16.2931 0.271295 14.1566C0.176604 13.7187 0.0947268 13.2781 0.0118495 12.8379C-0.0475822 12.5225 0.119626 12.325 0.444229 12.3201C0.622797 12.3174 0.801456 12.3197 0.980023 12.3197C0.980114 12.3147 0.980296 12.3099 0.980478 12.305Z" fill="#FFFFFF"/>
</svg>
